PathFileType	4	(X/Y/Z)	Run_500 04
DataRate	CameraRate	NumFrames	NumMarkers	Units	OrigDataRate	OrigDataStartFrame	OrigNumFrames
100	100	6	41	mm	100	75	125
Frame#	Time	RASI			RPSI			RTH1			RTH2			RTH3			LTH1			LTH2			LTH3			RTB1			RTB2			RTB3			LTB1			LTB2			LTB3			RCAL			RTOE			RMT5			LCAL			LTOE			LACR			RACR			CLAV			C7			RUA1			RUA2			RUA3			RLEL			RMEL			LUA1			LUA2			LUA3			LLEL			LMEL			RFAsuperior			RFAradius			RFAulna			LFAsuperior			LFAradius			LFAulna			LPSI			LASI		
		X1	Y1	Z1	X2	Y2	Z2	X3	Y3	Z3	X4	Y4	Z4	X5	Y5	Z5	X6	Y6	Z6	X7	Y7	Z7	X8	Y8	Z8	X9	Y9	Z9	X10	Y10	Z10	X11	Y11	Z11	X12	Y12	Z12	X13	Y13	Z13	X14	Y14	Z14	X15	Y15	Z15	X16	Y16	Z16	X17	Y17	Z17	X18	Y18	Z18	X19	Y19	Z19	X20	Y20	Z20	X21	Y21	Z21	X22	Y22	Z22	X23	Y23	Z23	X24	Y24	Z24	X25	Y25	Z25	X26	Y26	Z26	X27	Y27	Z27	X28	Y28	Z28	X29	Y29	Z29	X30	Y30	Z30	X31	Y31	Z31	X32	Y32	Z32	X33	Y33	Z33	X34	Y34	Z34	X35	Y35	Z35	X36	Y36	Z36	X37	Y37	Z37	X38	Y38	Z38	X39	Y39	Z39	X40	Y40	Z40	X41	Y41	Z41	

75	  0.750000	1118.192618	988.245039	-290.490297	951.655514	1042.883284	-378.415895	1118.798266	852.872729	-241.724847	1208.652315	814.796915	-264.134563	1257.545617	678.535213	-282.678338	1029.060336	833.156352	-604.763828	1053.209764	693.987654	-585.449229	946.447556	598.112106	-571.109028	1244.992849	472.000664	-358.619769	1133.325285	443.505097	-312.511699	1093.311587	373.123212	-368.674114	856.541629	326.997552	-484.133935	789.958213	296.999729	-521.917390	758.227830	230.727686	-458.932382	931.827245	385.557207	-375.369740	1098.328106	217.979009	-356.108198	1080.195462	214.426317	-278.424786	583.217732	193.469584	-437.419792	779.251671	 66.163768	-409.750608	1201.132367	1503.667003	-587.499119	1124.339251	1506.883708	-259.158184	1204.278823	1437.757492	-381.284935	1104.189058	1533.940064	-442.463312	1002.765559	1437.474249	-195.500735	944.624841	1459.113985	-230.860842	913.873951	1397.212427	-196.320122	842.703549	1353.990163	-185.315087	835.860720	1351.403090	-278.583782	1167.372895	1382.427697	-668.268203	1083.464999	1331.141598	-670.789013	1126.729135	1262.984434	-695.003792	1115.938571	1195.482580	-712.599071	1072.564003	1177.765660	-631.439813	904.134197	1289.715685	-172.894507	1016.469378	1165.813855	-204.610427	958.679730	1130.723606	-182.639178	1200.140862	1200.802487	-681.851628	1320.360830	1256.733277	-571.379041	1347.399641	1191.830994	-586.890937	962.171252	1045.965120	-472.291348	1128.717694	974.026838	-542.022898	
76	  0.760000	1123.232798	998.322060	-293.940195	956.338907	1050.412270	-380.601055	1124.817592	867.398804	-242.957745	1212.789498	830.450117	-267.185204	1264.074528	693.030209	-285.357270	1026.373355	836.326786	-605.321268	1042.686574	698.026361	-584.736357	929.147342	608.614868	-572.098967	1269.859596	476.152525	-361.076012	1162.258375	433.042266	-315.476270	1132.132071	358.753934	-372.450519	825.401578	339.996563	-489.468936	757.061233	313.374842	-527.159903	726.554807	244.118755	-466.700327	969.885674	349.418523	-378.768924	1158.430481	206.703487	-363.298922	1141.086642	198.614110	-285.871450	555.027971	214.985281	-444.557586	734.337456	 66.813655	-413.010089	1202.036899	1514.588624	-584.011074	1120.702306	1516.867167	-259.040895	1202.633530	1448.038495	-378.854713	1102.603757	1542.023333	-441.827791	997.945375	1452.193549	-197.784010	942.281512	1474.981607	-236.304293	908.499894	1415.426383	-200.905548	835.763908	1373.463575	-191.750867	831.846774	1370.312007	-285.494191	1173.144810	1393.479107	-665.429522	1090.502312	1341.085111	-670.825515	1135.221563	1273.218852	-693.013971	1125.557375	1204.683539	-709.639773	1080.456572	1187.737014	-629.987863	896.046910	1308.515724	-177.850945	1009.709808	1184.484590	-207.462817	951.435181	1149.204700	-187.561499	1208.146200	1213.406669	-675.772998	1322.010478	1276.289988	-561.824373	1351.519766	1211.848981	-573.985550	967.493088	1051.384863	-475.299544	1133.039662	976.622717	-542.320520	
77	  0.770000	1127.957942	1006.599371	-297.662325	960.885224	1057.761416	-382.984093	1130.661114	880.368248	-245.504992	1216.761445	842.756163	-270.607814	1267.921400	702.789495	-288.222298	1023.252482	841.500200	-606.681208	1033.380376	703.212464	-583.680309	914.166247	620.535962	-571.856994	1292.627537	478.402175	-363.204464	1191.387560	421.397615	-318.459450	1171.068945	344.853385	-376.624832	798.626931	355.134114	-493.629380	729.218040	331.287907	-531.630201	699.530918	258.789917	-473.960459	1010.888613	314.116928	-381.820584	1217.523258	198.575578	-372.816598	1202.188947	184.928328	-295.922648	532.904565	238.483684	-452.885793	691.602158	 68.895936	-417.162804	1203.038518	1524.734550	-580.386900	1117.532962	1525.905979	-259.188951	1201.127306	1457.220029	-376.563659	1101.188990	1549.292769	-441.059358	993.854640	1466.075237	-200.119363	940.623801	1489.628360	-241.501197	904.058497	1432.497799	-205.123483	829.780392	1391.790767	-197.620526	828.273717	1387.808788	-291.513686	1179.132454	1404.472910	-662.586693	1097.700944	1351.379999	-671.259195	1143.691163	1283.803713	-691.644070	1134.813461	1214.339041	-707.879295	1088.073101	1197.597314	-629.852881	889.052460	1326.416151	-182.479197	1004.128515	1202.353021	-209.850194	945.403862	1166.746869	-192.244400	1215.555947	1225.859456	-670.703633	1322.661512	1294.204479	-552.811383	1354.312030	1230.368951	-562.420811	972.463598	1056.858572	-478.122330	1137.748512	981.368170	-544.383727	
78	  0.780000	1132.123082	1012.382641	-301.333131	965.055325	1064.513257	-385.613287	1135.341694	889.842079	-248.866096	1220.164614	850.721620	-273.923119	1269.411057	707.922521	-290.929687	1020.880991	848.379135	-608.620146	1025.104215	709.095475	-582.236819	901.176334	633.603902	-570.577097	1313.018549	478.788945	-364.856373	1220.180161	408.848423	-321.440556	1209.500060	331.533076	-381.368310	776.348300	371.443385	-495.437223	707.068935	349.237602	-534.666778	676.405992	274.714674	-479.014722	1054.357208	279.802365	-385.563645	1275.044185	193.612271	-383.165187	1262.447080	174.213583	-306.989573	515.445973	263.541535	-461.574888	651.541529	 74.272337	-421.836909	1204.491036	1533.851740	-576.531874	1115.311287	1533.438530	-259.479189	1200.079485	1464.895103	-374.316225	1100.071179	1555.364908	-440.221434	990.729932	1478.719681	-202.497014	939.736928	1502.654991	-246.326418	900.451665	1447.999113	-208.841422	824.664022	1408.572654	-202.804667	825.187285	1403.828271	-296.572853	1184.911802	1415.021388	-659.773344	1104.490059	1361.458029	-671.873810	1151.927285	1294.357252	-690.878115	1143.742959	1224.085844	-707.372239	1095.473630	1207.082249	-630.862715	883.138189	1343.156324	-186.614766	999.567861	1219.087227	-211.712702	940.478554	1183.119163	-196.308498	1222.442426	1237.858247	-666.700484	1322.504228	1310.205308	-544.445555	1356.084919	1247.006903	-552.306595	976.822142	1062.254661	-480.536144	1142.504038	987.695167	-547.339017	
79	  0.790000	1135.601589	1015.766906	-304.647960	968.760479	1070.232056	-387.991346	1138.316157	894.291199	-251.973564	1222.520621	854.024961	-276.261504	1268.938720	709.090207	-293.217412	1020.118108	855.542718	-610.772597	1018.470197	715.052373	-580.269542	890.962628	646.565841	-569.231591	1330.773506	477.265516	-365.976705	1247.912122	395.456879	-324.411426	1246.977026	318.802911	-386.422715	757.863284	387.591767	-494.581082	689.857179	366.022284	-536.130307	655.651477	291.887375	-481.258881	1099.814314	246.854580	-390.831422	1330.300583	191.619845	-392.893408	1320.732676	166.817372	-317.578712	499.388358	289.506910	-469.441249	614.723932	 85.252458	-426.279844	1206.435157	1541.766774	-572.499116	1114.319301	1539.209177	-259.550672	1199.666832	1470.963845	-372.114632	1099.261231	1560.123640	-439.344188	988.786098	1489.590927	-204.632153	939.856912	1513.736332	-250.565292	897.775105	1461.776475	-211.998518	820.495270	1423.619365	-207.250271	822.901686	1418.408043	-300.849025	1190.137143	1424.669713	-657.413520	1110.471507	1370.843726	-672.532110	1159.582704	1304.432376	-690.788729	1152.193857	1233.515189	-708.015662	1102.504810	1216.079413	-632.917064	878.371373	1358.441028	-190.118506	995.990886	1234.346309	-213.042545	936.691111	1197.993574	-199.599262	1228.718513	1249.013713	-663.790491	1321.690879	1324.019943	-536.996723	1357.009940	1261.388523	-543.808081	980.429661	1067.302758	-482.340459	1146.734567	994.168848	-549.912893	
80	  0.800000	1138.210246	1017.395939	-307.352182	971.935582	1074.633315	-389.586378	1139.775405	893.920661	-253.892014	1223.770393	853.343746	-276.856468	1266.882790	707.041666	-295.090989	1021.122364	861.324968	-612.675141	1014.524681	720.191910	-577.662245	884.816816	657.209740	-568.886374	1345.661602	473.664420	-366.674102	1273.972130	381.232529	-327.492026	1283.069610	306.584718	-391.224727	742.081859	402.362867	-492.299278	675.621510	381.449322	-536.633271	635.826733	310.204427	-481.583131	1146.531338	216.019726	-397.679780	1382.438841	192.246928	-401.247627	1376.157425	162.652123	-327.012412	481.578772	316.043213	-475.547434	581.470463	102.987361	-429.575297	1208.365717	1548.272037	-568.677165	1114.499825	1543.297794	-259.024195	1199.841599	1475.587698	-370.123919	1098.700679	1563.724181	-438.395953	988.041968	1498.155405	-206.030061	941.119397	1522.668837	-253.849075	896.278774	1473.756605	-214.563284	817.486500	1436.878501	-210.957986	821.723405	1431.345673	-304.497551	1194.688604	1432.910463	-656.153782	1115.473952	1379.201920	-673.209856	1166.280066	1313.604922	-691.476342	1159.839124	1242.230466	-709.612622	1108.769014	1224.417752	-635.924886	874.881886	1371.988887	-192.944972	993.497326	1247.760131	-213.877663	934.187058	1210.987587	-202.172161	1234.206839	1258.900948	-661.996019	1320.396941	1335.358399	-530.793976	1357.150980	1273.139518	-537.055420	983.240268	1071.694871	-483.550974	1150.062761	999.688721	-551.574745	
